<svg width="375" height="460" viewBox="0 0 375 460" fill="none" xmlns="http://www.w3.org/2000/svg">
<path fill-rule="evenodd" clip-rule="evenodd" d="M0 188.235L0 674.735V674.735C0 681.207 5.24666 686.5 11.7188 686.5V686.5H363.281V686.5C369.753 686.5 375 681.207 375 674.735V674.735V288.235V276.471V269.706C375 266.944 372.761 264.706 370 264.706H363.281H362.434C359.279 264.706 356.31 266.194 354.422 268.721L353.906 269.412C312.455 324.896 240.443 352.941 187.5 352.941C102.649 352.941 32.8416 288.273 24.3127 205.352C24.0161 202.468 26.3139 200 29.2134 200H363.281H365C370.523 200 375 195.523 375 190V188.235C375 151.685 364.623 117.568 346.667 88.6913C345.774 87.2558 343.738 87.1397 342.519 88.3107C337.257 93.3654 330.123 96.4706 322.266 96.4706C306.084 96.4706 292.969 83.3026 292.969 67.0588C292.969 58.0046 297.044 49.9061 303.453 44.5108C304.74 43.4276 304.846 41.4037 303.527 40.3596C271.608 15.0834 231.309 0 187.5 0C83.9468 0 0 84.2758 0 188.235ZM133.594 125.882C133.594 142.126 120.477 155.294 104.297 155.294C88.1166 155.294 75 142.126 75 125.882C75 109.639 88.1166 96.4706 104.297 96.4706C120.477 96.4706 133.594 109.639 133.594 125.882Z" fill="#F0F0F0"/>
</svg>
